# xmcd
#
# Track frame offsets: 
#        150
#        20000
#        32152
#        44212
#        54802
#        67140
#        83615
#        100130
#        110865
#        124557
#
# Disc length: 1817 seconds
#
# Revision: 4
# Processed by: cddbd v1.5.2PL0 Copyright (c) Steve Scherf et al.
# Submitted via: ExactAudioCopy v0.99pb3
#
DISCID=8807170a
DTITLE=Various Artist - 101 Greatest Country Hits ~ Volume 1 ~ Forever Countr
DTITLE=y
DYEAR=1994
DGENRE=Country
TTITLE0=Marty Robbins - El Paso
TTITLE1=Tammy Wynette - Stand By Your Man
TTITLE2=Eddy Arnold - Make The World Go Away
TTITLE3=Statler Brothers - Flowers On The Wall
TTITLE4=Patsy Cline - Crazy
TTITLE5=Ronnie Milsap - It Was Almost Like A Song
TTITLE6=Barbara Mandrell - I Was Country When Country Wasn't Cool
TTITLE7=Leroy Vane Dyke - Walk On By
TTITLE8=Loretta Lynn - Coal Miner's Daughter
TTITLE9=Jack Greene - There Goes My Everything
EXTD=
EXTT0=MARTY ROBBINS
EXTT1=TAMMY WYNETTE
EXTT2=EDDY ARNOLD
EXTT3=STATLER BROTHERS
EXTT4=PATSY CLINE
EXTT5=RONNIE MILSAP
EXTT6=BARBARA MANDRELL
EXTT7=LEROY VAN DYKE
EXTT8=LORETTA LYNN
EXTT9=JACK GREENE
PLAYORDER=
